<?xml version="1.0" encoding="UTF-8" standalone="no"?>
<!DOCTYPE svg PUBLIC "-//W3C//DTD SVG 1.1//EN"
 "http://www.w3.org/Graphics/SVG/1.1/DTD/svg11.dtd">
<!-- Generated by graphviz version 14.1.1 (20251213.1925)
 -->
<!-- Pages: 1 -->
<svg width="2026pt" height="172pt"
 viewBox="0.00 0.00 2026.00 172.00" xmlns="http://www.w3.org/2000/svg" xmlns:xlink="http://www.w3.org/1999/xlink">
<g id="graph0" class="graph" transform="scale(1 1) rotate(0) translate(4 168.4)">
<polygon fill="white" stroke="none" points="-4,4 -4,-168.4 2021.96,-168.4 2021.96,4 -4,4"/>
<text xml:space="preserve" text-anchor="start" x="857.86" y="-115.8" font-family="Arial" font-weight="bold" font-size="48.00">BaselineCNN</text>
<text xml:space="preserve" text-anchor="start" x="910.73" y="-100.1" font-family="Arial" font-weight="bold" font-size="14.00">Source: </text>
<text xml:space="preserve" text-anchor="start" x="964.73" y="-100.1" font-family="Arial" font-size="14.00"> src.models.simple_cnn</text>
<text xml:space="preserve" text-anchor="start" x="969.23" y="-86.1" font-family="Arial" font-weight="bold" font-size="14.00">NNViz </text>
<text xml:space="preserve" text-anchor="start" x="1011.98" y="-86.1" font-family="Arial" font-size="14.00">v1.0.0</text>
<text xml:space="preserve" text-anchor="start" x="1007.11" y="-72.1" font-family="Arial" font-size="14.00"> </text>
<!-- adaptive_pool -->
<g id="node1" class="node">
<title>adaptive_pool</title>
<path fill="#444380" stroke="#444380" d="M1089.61,-41.4C1089.61,-41.4 856.06,-41.4 856.06,-41.4 850.06,-41.4 844.06,-35.4 844.06,-29.4 844.06,-29.4 844.06,-12 844.06,-12 844.06,-6 850.06,0 856.06,0 856.06,0 1089.61,0 1089.61,0 1095.61,0 1101.61,-6 1101.61,-12 1101.61,-12 1101.61,-29.4 1101.61,-29.4 1101.61,-35.4 1095.61,-41.4 1089.61,-41.4"/>
<text xml:space="preserve" text-anchor="start" x="858.46" y="-12.4" font-family="Arial" font-weight="bold" font-size="24.00" fill="white">AdaptiveAvgPool2d</text>
</g>
<!-- size -->
<g id="node2" class="node">
<title>size</title>
<path fill="#3a89ac" stroke="#3a89ac" d="M1200.16,-66.4C1200.16,-66.4 1149.61,-66.4 1149.61,-66.4 1143.61,-66.4 1137.61,-60.4 1137.61,-54.4 1137.61,-54.4 1137.61,-37 1137.61,-37 1137.61,-31 1143.61,-25 1149.61,-25 1149.61,-25 1200.16,-25 1200.16,-25 1206.16,-25 1212.16,-31 1212.16,-37 1212.16,-37 1212.16,-54.4 1212.16,-54.4 1212.16,-60.4 1206.16,-66.4 1200.16,-66.4"/>
<text xml:space="preserve" text-anchor="start" x="1152.01" y="-37.4" font-family="Arial" font-weight="bold" font-size="24.00" fill="white">size</text>
</g>
<!-- adaptive_pool&#45;&gt;size -->
<g id="edge1" class="edge">
<title>adaptive_pool&#45;&gt;size</title>
<path fill="none" stroke="black" stroke-width="2" d="M1101.94,-36.71C1109.86,-37.7 1117.52,-38.66 1124.7,-39.55"/>
<polygon fill="black" stroke="black" stroke-width="2" points="1124.1,-43.01 1134.46,-40.77 1124.97,-36.06 1124.1,-43.01"/>
</g>
<!-- view -->
<g id="node3" class="node">
<title>view</title>
<path fill="#b969da" stroke="#b969da" d="M1317.46,-41.4C1317.46,-41.4 1260.16,-41.4 1260.16,-41.4 1254.16,-41.4 1248.16,-35.4 1248.16,-29.4 1248.16,-29.4 1248.16,-12 1248.16,-12 1248.16,-6 1254.16,0 1260.16,0 1260.16,0 1317.46,0 1317.46,0 1323.46,0 1329.46,-6 1329.46,-12 1329.46,-12 1329.46,-29.4 1329.46,-29.4 1329.46,-35.4 1323.46,-41.4 1317.46,-41.4"/>
<text xml:space="preserve" text-anchor="start" x="1262.56" y="-12.4" font-family="Arial" font-weight="bold" font-size="24.00">view</text>
</g>
<!-- adaptive_pool&#45;&gt;view -->
<g id="edge2" class="edge">
<title>adaptive_pool&#45;&gt;view</title>
<path fill="none" stroke="black" stroke-width="2" d="M1101.86,-15.47C1137.57,-14.71 1176.38,-14.52 1212.16,-15.7 1219.49,-15.94 1227.2,-16.32 1234.8,-16.75"/>
<polygon fill="black" stroke="black" stroke-width="2" points="1234.57,-20.24 1244.77,-17.37 1235,-13.26 1234.57,-20.24"/>
</g>
<!-- size&#45;&gt;view -->
<g id="edge3" class="edge">
<title>size&#45;&gt;view</title>
<path fill="none" stroke="black" stroke-width="2" d="M1212.53,-37.51C1219.89,-35.87 1227.76,-34.11 1235.53,-32.38"/>
<polygon fill="black" stroke="black" stroke-width="2" points="1236.04,-35.85 1245.04,-30.25 1234.51,-29.02 1236.04,-35.85"/>
</g>
<!-- fc1 -->
<g id="node4" class="node">
<title>fc1</title>
<path fill="#50466b" stroke="#50466b" d="M1455.01,-41.4C1455.01,-41.4 1377.46,-41.4 1377.46,-41.4 1371.46,-41.4 1365.46,-35.4 1365.46,-29.4 1365.46,-29.4 1365.46,-12 1365.46,-12 1365.46,-6 1371.46,0 1377.46,0 1377.46,0 1455.01,0 1455.01,0 1461.01,0 1467.01,-6 1467.01,-12 1467.01,-12 1467.01,-29.4 1467.01,-29.4 1467.01,-35.4 1461.01,-41.4 1455.01,-41.4"/>
<text xml:space="preserve" text-anchor="start" x="1379.86" y="-12.4" font-family="Arial" font-weight="bold" font-size="24.00" fill="white">Linear</text>
</g>
<!-- view&#45;&gt;fc1 -->
<g id="edge4" class="edge">
<title>view&#45;&gt;fc1</title>
<path fill="none" stroke="black" stroke-width="2" d="M1329.84,-20.7C1337.01,-20.7 1344.63,-20.7 1352.25,-20.7"/>
<polygon fill="black" stroke="black" stroke-width="2" points="1351.99,-24.2 1361.99,-20.7 1351.99,-17.2 1351.99,-24.2"/>
</g>
<!-- relu_2 -->
<g id="node13" class="node">
<title>relu_2</title>
<path fill="#aa4aaf" stroke="#aa4aaf" d="M1564.06,-41.4C1564.06,-41.4 1515.01,-41.4 1515.01,-41.4 1509.01,-41.4 1503.01,-35.4 1503.01,-29.4 1503.01,-29.4 1503.01,-12 1503.01,-12 1503.01,-6 1509.01,0 1515.01,0 1515.01,0 1564.06,0 1564.06,0 1570.06,0 1576.06,-6 1576.06,-12 1576.06,-12 1576.06,-29.4 1576.06,-29.4 1576.06,-35.4 1570.06,-41.4 1564.06,-41.4"/>
<text xml:space="preserve" text-anchor="start" x="1517.41" y="-12.4" font-family="Arial" font-weight="bold" font-size="24.00" fill="white">relu</text>
</g>
<!-- fc1&#45;&gt;relu_2 -->
<g id="edge11" class="edge">
<title>fc1&#45;&gt;relu_2</title>
<path fill="none" stroke="black" stroke-width="2" d="M1467.27,-20.7C1474.7,-20.7 1482.34,-20.7 1489.74,-20.7"/>
<polygon fill="black" stroke="black" stroke-width="2" points="1489.66,-24.2 1499.66,-20.7 1489.66,-17.2 1489.66,-24.2"/>
</g>
<!-- conv1 -->
<g id="node5" class="node">
<title>conv1</title>
<path fill="#5a377c" stroke="#5a377c" d="M230.85,-41.4C230.85,-41.4 136.8,-41.4 136.8,-41.4 130.8,-41.4 124.8,-35.4 124.8,-29.4 124.8,-29.4 124.8,-12 124.8,-12 124.8,-6 130.8,0 136.8,0 136.8,0 230.85,0 230.85,0 236.85,0 242.85,-6 242.85,-12 242.85,-12 242.85,-29.4 242.85,-29.4 242.85,-35.4 236.85,-41.4 230.85,-41.4"/>
<text xml:space="preserve" text-anchor="start" x="139.2" y="-12.4" font-family="Arial" font-weight="bold" font-size="24.00" fill="white">Conv2d</text>
</g>
<!-- relu -->
<g id="node6" class="node">
<title>relu</title>
<path fill="#aa4aaf" stroke="#aa4aaf" d="M339.9,-41.4C339.9,-41.4 290.85,-41.4 290.85,-41.4 284.85,-41.4 278.85,-35.4 278.85,-29.4 278.85,-29.4 278.85,-12 278.85,-12 278.85,-6 284.85,0 290.85,0 290.85,0 339.9,0 339.9,0 345.9,0 351.9,-6 351.9,-12 351.9,-12 351.9,-29.4 351.9,-29.4 351.9,-35.4 345.9,-41.4 339.9,-41.4"/>
<text xml:space="preserve" text-anchor="start" x="293.25" y="-12.4" font-family="Arial" font-weight="bold" font-size="24.00" fill="white">relu</text>
</g>
<!-- conv1&#45;&gt;relu -->
<g id="edge5" class="edge">
<title>conv1&#45;&gt;relu</title>
<path fill="none" stroke="black" stroke-width="2" d="M243.16,-20.7C250.71,-20.7 258.39,-20.7 265.76,-20.7"/>
<polygon fill="black" stroke="black" stroke-width="2" points="265.6,-24.2 275.6,-20.7 265.6,-17.2 265.6,-24.2"/>
</g>
<!-- conv2 -->
<g id="node7" class="node">
<title>conv2</title>
<path fill="#5a377c" stroke="#5a377c" d="M493.95,-41.4C493.95,-41.4 399.9,-41.4 399.9,-41.4 393.9,-41.4 387.9,-35.4 387.9,-29.4 387.9,-29.4 387.9,-12 387.9,-12 387.9,-6 393.9,0 399.9,0 399.9,0 493.95,0 493.95,0 499.95,0 505.95,-6 505.95,-12 505.95,-12 505.95,-29.4 505.95,-29.4 505.95,-35.4 499.95,-41.4 493.95,-41.4"/>
<text xml:space="preserve" text-anchor="start" x="402.3" y="-12.4" font-family="Arial" font-weight="bold" font-size="24.00" fill="white">Conv2d</text>
</g>
<!-- relu&#45;&gt;conv2 -->
<g id="edge6" class="edge">
<title>relu&#45;&gt;conv2</title>
<path fill="none" stroke="black" stroke-width="2" d="M352.12,-20.7C359.13,-20.7 366.7,-20.7 374.41,-20.7"/>
<polygon fill="black" stroke="black" stroke-width="2" points="374.39,-24.2 384.39,-20.7 374.39,-17.2 374.39,-24.2"/>
</g>
<!-- relu_1 -->
<g id="node8" class="node">
<title>relu_1</title>
<path fill="#aa4aaf" stroke="#aa4aaf" d="M603,-41.4C603,-41.4 553.95,-41.4 553.95,-41.4 547.95,-41.4 541.95,-35.4 541.95,-29.4 541.95,-29.4 541.95,-12 541.95,-12 541.95,-6 547.95,0 553.95,0 553.95,0 603,0 603,0 609,0 615,-6 615,-12 615,-12 615,-29.4 615,-29.4 615,-35.4 609,-41.4 603,-41.4"/>
<text xml:space="preserve" text-anchor="start" x="556.35" y="-12.4" font-family="Arial" font-weight="bold" font-size="24.00" fill="white">relu</text>
</g>
<!-- conv2&#45;&gt;relu_1 -->
<g id="edge7" class="edge">
<title>conv2&#45;&gt;relu_1</title>
<path fill="none" stroke="black" stroke-width="2" d="M506.26,-20.7C513.82,-20.7 521.49,-20.7 528.87,-20.7"/>
<polygon fill="black" stroke="black" stroke-width="2" points="528.7,-24.2 538.7,-20.7 528.7,-17.2 528.7,-24.2"/>
</g>
<!-- pool -->
<g id="node9" class="node">
<title>pool</title>
<path fill="#4a3f7f" stroke="#4a3f7f" d="M796.06,-41.4C796.06,-41.4 663,-41.4 663,-41.4 657,-41.4 651,-35.4 651,-29.4 651,-29.4 651,-12 651,-12 651,-6 657,0 663,0 663,0 796.06,0 796.06,0 802.06,0 808.06,-6 808.06,-12 808.06,-12 808.06,-29.4 808.06,-29.4 808.06,-35.4 802.06,-41.4 796.06,-41.4"/>
<text xml:space="preserve" text-anchor="start" x="665.41" y="-12.4" font-family="Arial" font-weight="bold" font-size="24.00" fill="white">MaxPool2d</text>
</g>
<!-- relu_1&#45;&gt;pool -->
<g id="edge8" class="edge">
<title>relu_1&#45;&gt;pool</title>
<path fill="none" stroke="black" stroke-width="2" d="M615.18,-20.7C622.16,-20.7 629.77,-20.7 637.64,-20.7"/>
<polygon fill="black" stroke="black" stroke-width="2" points="637.58,-24.2 647.58,-20.7 637.58,-17.2 637.58,-24.2"/>
</g>
<!-- pool&#45;&gt;adaptive_pool -->
<g id="edge13" class="edge">
<title>pool&#45;&gt;adaptive_pool</title>
<path fill="none" stroke="black" stroke-width="2" d="M808.54,-20.7C815.78,-20.7 823.24,-20.7 830.82,-20.7"/>
<polygon fill="black" stroke="black" stroke-width="2" points="830.63,-24.2 840.63,-20.7 830.63,-17.2 830.63,-24.2"/>
</g>
<!-- dropout -->
<g id="node10" class="node">
<title>dropout</title>
<path fill="#462a83" stroke="#462a83" d="M1723.36,-41.4C1723.36,-41.4 1624.06,-41.4 1624.06,-41.4 1618.06,-41.4 1612.06,-35.4 1612.06,-29.4 1612.06,-29.4 1612.06,-12 1612.06,-12 1612.06,-6 1618.06,0 1624.06,0 1624.06,0 1723.36,0 1723.36,0 1729.36,0 1735.36,-6 1735.36,-12 1735.36,-12 1735.36,-29.4 1735.36,-29.4 1735.36,-35.4 1729.36,-41.4 1723.36,-41.4"/>
<text xml:space="preserve" text-anchor="start" x="1626.46" y="-12.4" font-family="Arial" font-weight="bold" font-size="24.00" fill="white">Dropout</text>
</g>
<!-- fc2 -->
<g id="node11" class="node">
<title>fc2</title>
<path fill="#50466b" stroke="#50466b" d="M1860.91,-41.4C1860.91,-41.4 1783.36,-41.4 1783.36,-41.4 1777.36,-41.4 1771.36,-35.4 1771.36,-29.4 1771.36,-29.4 1771.36,-12 1771.36,-12 1771.36,-6 1777.36,0 1783.36,0 1783.36,0 1860.91,0 1860.91,0 1866.91,0 1872.91,-6 1872.91,-12 1872.91,-12 1872.91,-29.4 1872.91,-29.4 1872.91,-35.4 1866.91,-41.4 1860.91,-41.4"/>
<text xml:space="preserve" text-anchor="start" x="1785.76" y="-12.4" font-family="Arial" font-weight="bold" font-size="24.00" fill="white">Linear</text>
</g>
<!-- dropout&#45;&gt;fc2 -->
<g id="edge9" class="edge">
<title>dropout&#45;&gt;fc2</title>
<path fill="none" stroke="black" stroke-width="2" d="M1735.54,-20.7C1743,-20.7 1750.63,-20.7 1758.12,-20.7"/>
<polygon fill="black" stroke="black" stroke-width="2" points="1757.92,-24.2 1767.92,-20.7 1757.92,-17.2 1757.92,-24.2"/>
</g>
<!-- output -->
<g id="node12" class="node">
<title>output</title>
<path fill="#000000" stroke="#000000" d="M2005.96,-41.4C2005.96,-41.4 1920.91,-41.4 1920.91,-41.4 1914.91,-41.4 1908.91,-35.4 1908.91,-29.4 1908.91,-29.4 1908.91,-12 1908.91,-12 1908.91,-6 1914.91,0 1920.91,0 1920.91,0 2005.96,0 2005.96,0 2011.96,0 2017.96,-6 2017.96,-12 2017.96,-12 2017.96,-29.4 2017.96,-29.4 2017.96,-35.4 2011.96,-41.4 2005.96,-41.4"/>
<text xml:space="preserve" text-anchor="start" x="1923.31" y="-12.4" font-family="Arial" font-weight="bold" font-size="24.00" fill="white">Output</text>
</g>
<!-- fc2&#45;&gt;output -->
<g id="edge10" class="edge">
<title>fc2&#45;&gt;output</title>
<path fill="none" stroke="black" stroke-width="2" d="M1873.04,-20.7C1880.44,-20.7 1888.16,-20.7 1895.84,-20.7"/>
<polygon fill="black" stroke="black" stroke-width="2" points="1895.62,-24.2 1905.62,-20.7 1895.62,-17.2 1895.62,-24.2"/>
</g>
<!-- relu_2&#45;&gt;dropout -->
<g id="edge12" class="edge">
<title>relu_2&#45;&gt;dropout</title>
<path fill="none" stroke="black" stroke-width="2" d="M1576.31,-20.7C1583.4,-20.7 1591.08,-20.7 1598.91,-20.7"/>
<polygon fill="black" stroke="black" stroke-width="2" points="1598.68,-24.2 1608.68,-20.7 1598.68,-17.2 1598.68,-24.2"/>
</g>
<!-- x -->
<g id="node14" class="node">
<title>x</title>
<path fill="#000000" stroke="#000000" d="M76.8,-41.4C76.8,-41.4 12,-41.4 12,-41.4 6,-41.4 0,-35.4 0,-29.4 0,-29.4 0,-12 0,-12 0,-6 6,0 12,0 12,0 76.8,0 76.8,0 82.8,0 88.8,-6 88.8,-12 88.8,-12 88.8,-29.4 88.8,-29.4 88.8,-35.4 82.8,-41.4 76.8,-41.4"/>
<text xml:space="preserve" text-anchor="start" x="14.4" y="-12.4" font-family="Arial" font-weight="bold" font-size="24.00" fill="white">Input</text>
</g>
<!-- x&#45;&gt;conv1 -->
<g id="edge14" class="edge">
<title>x&#45;&gt;conv1</title>
<path fill="none" stroke="black" stroke-width="2" d="M89.26,-20.7C96.41,-20.7 103.97,-20.7 111.57,-20.7"/>
<polygon fill="black" stroke="black" stroke-width="2" points="111.31,-24.2 121.31,-20.7 111.31,-17.2 111.31,-24.2"/>
</g>
</g>
</svg>
