<?xml version="1.0" encoding="UTF-8" standalone="no"?>
<!DOCTYPE svg PUBLIC "-//W3C//DTD SVG 1.1//EN"
 "http://www.w3.org/Graphics/SVG/1.1/DTD/svg11.dtd">
<!-- Generated by graphviz version 14.1.1 (20251213.1925)
 -->
<!-- Pages: 1 -->
<svg width="2482pt" height="172pt"
 viewBox="0.00 0.00 2482.00 172.00" xmlns="http://www.w3.org/2000/svg" xmlns:xlink="http://www.w3.org/1999/xlink">
<g id="graph0" class="graph" transform="scale(1 1) rotate(0) translate(4 168.4)">
<polygon fill="white" stroke="none" points="-4,4 -4,-168.4 2478.12,-168.4 2478.12,4 -4,4"/>
<text xml:space="preserve" text-anchor="start" x="1048.81" y="-115.8" font-family="Arial" font-weight="bold" font-size="48.00">RegularizedCNN</text>
<text xml:space="preserve" text-anchor="start" x="1138.81" y="-100.1" font-family="Arial" font-weight="bold" font-size="14.00">Source: </text>
<text xml:space="preserve" text-anchor="start" x="1192.81" y="-100.1" font-family="Arial" font-size="14.00"> src.models.simple_cnn</text>
<text xml:space="preserve" text-anchor="start" x="1197.31" y="-86.1" font-family="Arial" font-weight="bold" font-size="14.00">NNViz </text>
<text xml:space="preserve" text-anchor="start" x="1240.06" y="-86.1" font-family="Arial" font-size="14.00">v1.0.0</text>
<text xml:space="preserve" text-anchor="start" x="1235.19" y="-72.1" font-family="Arial" font-size="14.00"> </text>
<!-- adaptive_pool -->
<g id="node1" class="node">
<title>adaptive_pool</title>
<path fill="#444380" stroke="#444380" d="M1545.77,-41.4C1545.77,-41.4 1312.21,-41.4 1312.21,-41.4 1306.21,-41.4 1300.21,-35.4 1300.21,-29.4 1300.21,-29.4 1300.21,-12 1300.21,-12 1300.21,-6 1306.21,0 1312.21,0 1312.21,0 1545.77,0 1545.77,0 1551.77,0 1557.77,-6 1557.77,-12 1557.77,-12 1557.77,-29.4 1557.77,-29.4 1557.77,-35.4 1551.77,-41.4 1545.77,-41.4"/>
<text xml:space="preserve" text-anchor="start" x="1314.61" y="-12.4" font-family="Arial" font-weight="bold" font-size="24.00" fill="white">AdaptiveAvgPool2d</text>
</g>
<!-- size -->
<g id="node2" class="node">
<title>size</title>
<path fill="#3a89ac" stroke="#3a89ac" d="M1656.32,-66.4C1656.32,-66.4 1605.77,-66.4 1605.77,-66.4 1599.77,-66.4 1593.77,-60.4 1593.77,-54.4 1593.77,-54.4 1593.77,-37 1593.77,-37 1593.77,-31 1599.77,-25 1605.77,-25 1605.77,-25 1656.32,-25 1656.32,-25 1662.32,-25 1668.32,-31 1668.32,-37 1668.32,-37 1668.32,-54.4 1668.32,-54.4 1668.32,-60.4 1662.32,-66.4 1656.32,-66.4"/>
<text xml:space="preserve" text-anchor="start" x="1608.17" y="-37.4" font-family="Arial" font-weight="bold" font-size="24.00" fill="white">size</text>
</g>
<!-- adaptive_pool&#45;&gt;size -->
<g id="edge1" class="edge">
<title>adaptive_pool&#45;&gt;size</title>
<path fill="none" stroke="black" stroke-width="2" d="M1558.1,-36.71C1566.02,-37.7 1573.67,-38.66 1580.86,-39.55"/>
<polygon fill="black" stroke="black" stroke-width="2" points="1580.26,-43.01 1590.62,-40.77 1581.13,-36.06 1580.26,-43.01"/>
</g>
<!-- view -->
<g id="node3" class="node">
<title>view</title>
<path fill="#b969da" stroke="#b969da" d="M1773.62,-41.4C1773.62,-41.4 1716.32,-41.4 1716.32,-41.4 1710.32,-41.4 1704.32,-35.4 1704.32,-29.4 1704.32,-29.4 1704.32,-12 1704.32,-12 1704.32,-6 1710.32,0 1716.32,0 1716.32,0 1773.62,0 1773.62,0 1779.62,0 1785.62,-6 1785.62,-12 1785.62,-12 1785.62,-29.4 1785.62,-29.4 1785.62,-35.4 1779.62,-41.4 1773.62,-41.4"/>
<text xml:space="preserve" text-anchor="start" x="1718.72" y="-12.4" font-family="Arial" font-weight="bold" font-size="24.00">view</text>
</g>
<!-- adaptive_pool&#45;&gt;view -->
<g id="edge2" class="edge">
<title>adaptive_pool&#45;&gt;view</title>
<path fill="none" stroke="black" stroke-width="2" d="M1558.02,-15.47C1593.73,-14.71 1632.54,-14.52 1668.32,-15.7 1675.64,-15.94 1683.36,-16.32 1690.95,-16.75"/>
<polygon fill="black" stroke="black" stroke-width="2" points="1690.73,-20.24 1700.92,-17.37 1691.16,-13.26 1690.73,-20.24"/>
</g>
<!-- size&#45;&gt;view -->
<g id="edge3" class="edge">
<title>size&#45;&gt;view</title>
<path fill="none" stroke="black" stroke-width="2" d="M1668.69,-37.51C1676.05,-35.87 1683.91,-34.11 1691.69,-32.38"/>
<polygon fill="black" stroke="black" stroke-width="2" points="1692.2,-35.85 1701.19,-30.25 1690.67,-29.02 1692.2,-35.85"/>
</g>
<!-- fc1 -->
<g id="node4" class="node">
<title>fc1</title>
<path fill="#50466b" stroke="#50466b" d="M1911.17,-41.4C1911.17,-41.4 1833.62,-41.4 1833.62,-41.4 1827.62,-41.4 1821.62,-35.4 1821.62,-29.4 1821.62,-29.4 1821.62,-12 1821.62,-12 1821.62,-6 1827.62,0 1833.62,0 1833.62,0 1911.17,0 1911.17,0 1917.17,0 1923.17,-6 1923.17,-12 1923.17,-12 1923.17,-29.4 1923.17,-29.4 1923.17,-35.4 1917.17,-41.4 1911.17,-41.4"/>
<text xml:space="preserve" text-anchor="start" x="1836.02" y="-12.4" font-family="Arial" font-weight="bold" font-size="24.00" fill="white">Linear</text>
</g>
<!-- view&#45;&gt;fc1 -->
<g id="edge4" class="edge">
<title>view&#45;&gt;fc1</title>
<path fill="none" stroke="black" stroke-width="2" d="M1786,-20.7C1793.16,-20.7 1800.78,-20.7 1808.41,-20.7"/>
<polygon fill="black" stroke="black" stroke-width="2" points="1808.14,-24.2 1818.14,-20.7 1808.14,-17.2 1808.14,-24.2"/>
</g>
<!-- relu_3 -->
<g id="node16" class="node">
<title>relu_3</title>
<path fill="#aa4aaf" stroke="#aa4aaf" d="M2020.22,-41.4C2020.22,-41.4 1971.17,-41.4 1971.17,-41.4 1965.17,-41.4 1959.17,-35.4 1959.17,-29.4 1959.17,-29.4 1959.17,-12 1959.17,-12 1959.17,-6 1965.17,0 1971.17,0 1971.17,0 2020.22,0 2020.22,0 2026.22,0 2032.22,-6 2032.22,-12 2032.22,-12 2032.22,-29.4 2032.22,-29.4 2032.22,-35.4 2026.22,-41.4 2020.22,-41.4"/>
<text xml:space="preserve" text-anchor="start" x="1973.57" y="-12.4" font-family="Arial" font-weight="bold" font-size="24.00" fill="white">relu</text>
</g>
<!-- fc1&#45;&gt;relu_3 -->
<g id="edge13" class="edge">
<title>fc1&#45;&gt;relu_3</title>
<path fill="none" stroke="black" stroke-width="2" d="M1923.43,-20.7C1930.85,-20.7 1938.5,-20.7 1945.89,-20.7"/>
<polygon fill="black" stroke="black" stroke-width="2" points="1945.82,-24.2 1955.82,-20.7 1945.82,-17.2 1945.82,-24.2"/>
</g>
<!-- conv1 -->
<g id="node5" class="node">
<title>conv1</title>
<path fill="#5a377c" stroke="#5a377c" d="M230.85,-41.4C230.85,-41.4 136.8,-41.4 136.8,-41.4 130.8,-41.4 124.8,-35.4 124.8,-29.4 124.8,-29.4 124.8,-12 124.8,-12 124.8,-6 130.8,0 136.8,0 136.8,0 230.85,0 230.85,0 236.85,0 242.85,-6 242.85,-12 242.85,-12 242.85,-29.4 242.85,-29.4 242.85,-35.4 236.85,-41.4 230.85,-41.4"/>
<text xml:space="preserve" text-anchor="start" x="139.2" y="-12.4" font-family="Arial" font-weight="bold" font-size="24.00" fill="white">Conv2d</text>
</g>
<!-- relu -->
<g id="node6" class="node">
<title>relu</title>
<path fill="#aa4aaf" stroke="#aa4aaf" d="M339.9,-41.4C339.9,-41.4 290.85,-41.4 290.85,-41.4 284.85,-41.4 278.85,-35.4 278.85,-29.4 278.85,-29.4 278.85,-12 278.85,-12 278.85,-6 284.85,0 290.85,0 290.85,0 339.9,0 339.9,0 345.9,0 351.9,-6 351.9,-12 351.9,-12 351.9,-29.4 351.9,-29.4 351.9,-35.4 345.9,-41.4 339.9,-41.4"/>
<text xml:space="preserve" text-anchor="start" x="293.25" y="-12.4" font-family="Arial" font-weight="bold" font-size="24.00" fill="white">relu</text>
</g>
<!-- conv1&#45;&gt;relu -->
<g id="edge5" class="edge">
<title>conv1&#45;&gt;relu</title>
<path fill="none" stroke="black" stroke-width="2" d="M243.16,-20.7C250.71,-20.7 258.39,-20.7 265.76,-20.7"/>
<polygon fill="black" stroke="black" stroke-width="2" points="265.6,-24.2 275.6,-20.7 265.6,-17.2 265.6,-24.2"/>
</g>
<!-- conv2 -->
<g id="node7" class="node">
<title>conv2</title>
<path fill="#5a377c" stroke="#5a377c" d="M493.95,-41.4C493.95,-41.4 399.9,-41.4 399.9,-41.4 393.9,-41.4 387.9,-35.4 387.9,-29.4 387.9,-29.4 387.9,-12 387.9,-12 387.9,-6 393.9,0 399.9,0 399.9,0 493.95,0 493.95,0 499.95,0 505.95,-6 505.95,-12 505.95,-12 505.95,-29.4 505.95,-29.4 505.95,-35.4 499.95,-41.4 493.95,-41.4"/>
<text xml:space="preserve" text-anchor="start" x="402.3" y="-12.4" font-family="Arial" font-weight="bold" font-size="24.00" fill="white">Conv2d</text>
</g>
<!-- relu&#45;&gt;conv2 -->
<g id="edge6" class="edge">
<title>relu&#45;&gt;conv2</title>
<path fill="none" stroke="black" stroke-width="2" d="M352.12,-20.7C359.13,-20.7 366.7,-20.7 374.41,-20.7"/>
<polygon fill="black" stroke="black" stroke-width="2" points="374.39,-24.2 384.39,-20.7 374.39,-17.2 374.39,-24.2"/>
</g>
<!-- relu_1 -->
<g id="node8" class="node">
<title>relu_1</title>
<path fill="#aa4aaf" stroke="#aa4aaf" d="M603,-41.4C603,-41.4 553.95,-41.4 553.95,-41.4 547.95,-41.4 541.95,-35.4 541.95,-29.4 541.95,-29.4 541.95,-12 541.95,-12 541.95,-6 547.95,0 553.95,0 553.95,0 603,0 603,0 609,0 615,-6 615,-12 615,-12 615,-29.4 615,-29.4 615,-35.4 609,-41.4 603,-41.4"/>
<text xml:space="preserve" text-anchor="start" x="556.35" y="-12.4" font-family="Arial" font-weight="bold" font-size="24.00" fill="white">relu</text>
</g>
<!-- conv2&#45;&gt;relu_1 -->
<g id="edge7" class="edge">
<title>conv2&#45;&gt;relu_1</title>
<path fill="none" stroke="black" stroke-width="2" d="M506.26,-20.7C513.82,-20.7 521.49,-20.7 528.87,-20.7"/>
<polygon fill="black" stroke="black" stroke-width="2" points="528.7,-24.2 538.7,-20.7 528.7,-17.2 528.7,-24.2"/>
</g>
<!-- pool -->
<g id="node9" class="node">
<title>pool</title>
<path fill="#4a3f7f" stroke="#4a3f7f" d="M796.06,-41.4C796.06,-41.4 663,-41.4 663,-41.4 657,-41.4 651,-35.4 651,-29.4 651,-29.4 651,-12 651,-12 651,-6 657,0 663,0 663,0 796.06,0 796.06,0 802.06,0 808.06,-6 808.06,-12 808.06,-12 808.06,-29.4 808.06,-29.4 808.06,-35.4 802.06,-41.4 796.06,-41.4"/>
<text xml:space="preserve" text-anchor="start" x="665.41" y="-12.4" font-family="Arial" font-weight="bold" font-size="24.00" fill="white">MaxPool2d</text>
</g>
<!-- relu_1&#45;&gt;pool -->
<g id="edge8" class="edge">
<title>relu_1&#45;&gt;pool</title>
<path fill="none" stroke="black" stroke-width="2" d="M615.18,-20.7C622.16,-20.7 629.77,-20.7 637.64,-20.7"/>
<polygon fill="black" stroke="black" stroke-width="2" points="637.58,-24.2 647.58,-20.7 637.58,-17.2 637.58,-24.2"/>
</g>
<!-- conv3 -->
<g id="node10" class="node">
<title>conv3</title>
<path fill="#5a377c" stroke="#5a377c" d="M950.11,-41.4C950.11,-41.4 856.06,-41.4 856.06,-41.4 850.06,-41.4 844.06,-35.4 844.06,-29.4 844.06,-29.4 844.06,-12 844.06,-12 844.06,-6 850.06,0 856.06,0 856.06,0 950.11,0 950.11,0 956.11,0 962.11,-6 962.11,-12 962.11,-12 962.11,-29.4 962.11,-29.4 962.11,-35.4 956.11,-41.4 950.11,-41.4"/>
<text xml:space="preserve" text-anchor="start" x="858.46" y="-12.4" font-family="Arial" font-weight="bold" font-size="24.00" fill="white">Conv2d</text>
</g>
<!-- pool&#45;&gt;conv3 -->
<g id="edge15" class="edge">
<title>pool&#45;&gt;conv3</title>
<path fill="none" stroke="black" stroke-width="2" d="M808.53,-20.7C815.94,-20.7 823.43,-20.7 830.78,-20.7"/>
<polygon fill="black" stroke="black" stroke-width="2" points="830.76,-24.2 840.76,-20.7 830.76,-17.2 830.76,-24.2"/>
</g>
<!-- relu_2 -->
<g id="node11" class="node">
<title>relu_2</title>
<path fill="#aa4aaf" stroke="#aa4aaf" d="M1059.16,-41.4C1059.16,-41.4 1010.11,-41.4 1010.11,-41.4 1004.11,-41.4 998.11,-35.4 998.11,-29.4 998.11,-29.4 998.11,-12 998.11,-12 998.11,-6 1004.11,0 1010.11,0 1010.11,0 1059.16,0 1059.16,0 1065.16,0 1071.16,-6 1071.16,-12 1071.16,-12 1071.16,-29.4 1071.16,-29.4 1071.16,-35.4 1065.16,-41.4 1059.16,-41.4"/>
<text xml:space="preserve" text-anchor="start" x="1012.51" y="-12.4" font-family="Arial" font-weight="bold" font-size="24.00" fill="white">relu</text>
</g>
<!-- conv3&#45;&gt;relu_2 -->
<g id="edge9" class="edge">
<title>conv3&#45;&gt;relu_2</title>
<path fill="none" stroke="black" stroke-width="2" d="M962.42,-20.7C969.97,-20.7 977.65,-20.7 985.02,-20.7"/>
<polygon fill="black" stroke="black" stroke-width="2" points="984.86,-24.2 994.86,-20.7 984.86,-17.2 984.86,-24.2"/>
</g>
<!-- pool_1 -->
<g id="node12" class="node">
<title>pool_1</title>
<path fill="#4a3f7f" stroke="#4a3f7f" d="M1252.21,-41.4C1252.21,-41.4 1119.16,-41.4 1119.16,-41.4 1113.16,-41.4 1107.16,-35.4 1107.16,-29.4 1107.16,-29.4 1107.16,-12 1107.16,-12 1107.16,-6 1113.16,0 1119.16,0 1119.16,0 1252.21,0 1252.21,0 1258.21,0 1264.21,-6 1264.21,-12 1264.21,-12 1264.21,-29.4 1264.21,-29.4 1264.21,-35.4 1258.21,-41.4 1252.21,-41.4"/>
<text xml:space="preserve" text-anchor="start" x="1121.56" y="-12.4" font-family="Arial" font-weight="bold" font-size="24.00" fill="white">MaxPool2d</text>
</g>
<!-- relu_2&#45;&gt;pool_1 -->
<g id="edge10" class="edge">
<title>relu_2&#45;&gt;pool_1</title>
<path fill="none" stroke="black" stroke-width="2" d="M1071.34,-20.7C1078.32,-20.7 1085.93,-20.7 1093.8,-20.7"/>
<polygon fill="black" stroke="black" stroke-width="2" points="1093.73,-24.2 1103.73,-20.7 1093.73,-17.2 1093.73,-24.2"/>
</g>
<!-- pool_1&#45;&gt;adaptive_pool -->
<g id="edge16" class="edge">
<title>pool_1&#45;&gt;adaptive_pool</title>
<path fill="none" stroke="black" stroke-width="2" d="M1264.7,-20.7C1271.93,-20.7 1279.4,-20.7 1286.98,-20.7"/>
<polygon fill="black" stroke="black" stroke-width="2" points="1286.79,-24.2 1296.79,-20.7 1286.79,-17.2 1286.79,-24.2"/>
</g>
<!-- dropout -->
<g id="node13" class="node">
<title>dropout</title>
<path fill="#462a83" stroke="#462a83" d="M2179.52,-41.4C2179.52,-41.4 2080.22,-41.4 2080.22,-41.4 2074.22,-41.4 2068.22,-35.4 2068.22,-29.4 2068.22,-29.4 2068.22,-12 2068.22,-12 2068.22,-6 2074.22,0 2080.22,0 2080.22,0 2179.52,0 2179.52,0 2185.52,0 2191.52,-6 2191.52,-12 2191.52,-12 2191.52,-29.4 2191.52,-29.4 2191.52,-35.4 2185.52,-41.4 2179.52,-41.4"/>
<text xml:space="preserve" text-anchor="start" x="2082.62" y="-12.4" font-family="Arial" font-weight="bold" font-size="24.00" fill="white">Dropout</text>
</g>
<!-- fc2 -->
<g id="node14" class="node">
<title>fc2</title>
<path fill="#50466b" stroke="#50466b" d="M2317.07,-41.4C2317.07,-41.4 2239.52,-41.4 2239.52,-41.4 2233.52,-41.4 2227.52,-35.4 2227.52,-29.4 2227.52,-29.4 2227.52,-12 2227.52,-12 2227.52,-6 2233.52,0 2239.52,0 2239.52,0 2317.07,0 2317.07,0 2323.07,0 2329.07,-6 2329.07,-12 2329.07,-12 2329.07,-29.4 2329.07,-29.4 2329.07,-35.4 2323.07,-41.4 2317.07,-41.4"/>
<text xml:space="preserve" text-anchor="start" x="2241.92" y="-12.4" font-family="Arial" font-weight="bold" font-size="24.00" fill="white">Linear</text>
</g>
<!-- dropout&#45;&gt;fc2 -->
<g id="edge11" class="edge">
<title>dropout&#45;&gt;fc2</title>
<path fill="none" stroke="black" stroke-width="2" d="M2191.69,-20.7C2199.15,-20.7 2206.79,-20.7 2214.28,-20.7"/>
<polygon fill="black" stroke="black" stroke-width="2" points="2214.08,-24.2 2224.08,-20.7 2214.08,-17.2 2214.08,-24.2"/>
</g>
<!-- output -->
<g id="node15" class="node">
<title>output</title>
<path fill="#000000" stroke="#000000" d="M2462.12,-41.4C2462.12,-41.4 2377.07,-41.4 2377.07,-41.4 2371.07,-41.4 2365.07,-35.4 2365.07,-29.4 2365.07,-29.4 2365.07,-12 2365.07,-12 2365.07,-6 2371.07,0 2377.07,0 2377.07,0 2462.12,0 2462.12,0 2468.12,0 2474.12,-6 2474.12,-12 2474.12,-12 2474.12,-29.4 2474.12,-29.4 2474.12,-35.4 2468.12,-41.4 2462.12,-41.4"/>
<text xml:space="preserve" text-anchor="start" x="2379.47" y="-12.4" font-family="Arial" font-weight="bold" font-size="24.00" fill="white">Output</text>
</g>
<!-- fc2&#45;&gt;output -->
<g id="edge12" class="edge">
<title>fc2&#45;&gt;output</title>
<path fill="none" stroke="black" stroke-width="2" d="M2329.19,-20.7C2336.59,-20.7 2344.32,-20.7 2352,-20.7"/>
<polygon fill="black" stroke="black" stroke-width="2" points="2351.78,-24.2 2361.78,-20.7 2351.78,-17.2 2351.78,-24.2"/>
</g>
<!-- relu_3&#45;&gt;dropout -->
<g id="edge14" class="edge">
<title>relu_3&#45;&gt;dropout</title>
<path fill="none" stroke="black" stroke-width="2" d="M2032.46,-20.7C2039.55,-20.7 2047.24,-20.7 2055.07,-20.7"/>
<polygon fill="black" stroke="black" stroke-width="2" points="2054.83,-24.2 2064.83,-20.7 2054.83,-17.2 2054.83,-24.2"/>
</g>
<!-- x -->
<g id="node17" class="node">
<title>x</title>
<path fill="#000000" stroke="#000000" d="M76.8,-41.4C76.8,-41.4 12,-41.4 12,-41.4 6,-41.4 0,-35.4 0,-29.4 0,-29.4 0,-12 0,-12 0,-6 6,0 12,0 12,0 76.8,0 76.8,0 82.8,0 88.8,-6 88.8,-12 88.8,-12 88.8,-29.4 88.8,-29.4 88.8,-35.4 82.8,-41.4 76.8,-41.4"/>
<text xml:space="preserve" text-anchor="start" x="14.4" y="-12.4" font-family="Arial" font-weight="bold" font-size="24.00" fill="white">Input</text>
</g>
<!-- x&#45;&gt;conv1 -->
<g id="edge17" class="edge">
<title>x&#45;&gt;conv1</title>
<path fill="none" stroke="black" stroke-width="2" d="M89.26,-20.7C96.41,-20.7 103.97,-20.7 111.57,-20.7"/>
<polygon fill="black" stroke="black" stroke-width="2" points="111.31,-24.2 121.31,-20.7 111.31,-17.2 111.31,-24.2"/>
</g>
</g>
</svg>
